<svg width="100%" height="100%" id="svg" viewBox="0 0 1440 690" 
    xmlns="http://www.w3.org/2000/svg" class="transition duration-300 ease-in-out delay-150"><defs><linearGradient id="gradient" x1="0%" y1="50%" x2="100%" y2="50%"><stop offset="5%" stop-color="#F78DA7"></stop><stop offset="95%" stop-color="#8ED1FC"></stop></linearGradient></defs><path d="M 0,700 L 0,0 C 47.95692194403533,100.30651693667157 95.91384388807066,200.61303387334314 151,226 C 206.08615611192934,251.38696612665686 268.30154639175265,201.85438144329896 336,194 C 403.69845360824735,186.14561855670104 476.87997054491893,219.96944035346098 535,213 C 593.1200294550811,206.03055964653902 636.1785714285714,158.26785714285714 689,154 C 741.8214285714286,149.73214285714286 804.4057437407953,188.95913107511046 870,241 C 935.5942562592047,293.04086892488954 1004.1984536082473,357.89561855670104 1071,350 C 1137.8015463917527,342.10438144329896 1202.800441826215,261.45839469808544 1264,191 C 1325.199558173785,120.54160530191457 1382.5997790868923,60.270802650957286 1440,0 L 1440,700 L 0,700 Z" stroke="none" stroke-width="0" fill="rgba(0,136,169,1)" fill-opacity="1" class="transition-all duration-300 ease-in-out delay-150 path-0"></path></svg>